<svg xmlns="http://www.w3.org/2000/svg" viewBox="0 0 239.79 191.51"><defs><style>.cls-1{fill:#172c66;}.cls-2{fill:#afafaf;}</style></defs><g id="Layer_2" data-name="Layer 2"><g id="Layer_5" data-name="Layer 5"><path class="cls-1" d="M45.12,133.64v20.24a33.26,33.26,0,0,1-14.36,2.84C7,156.72,0,141,0,120.92V112.2H14.52v8.72C14.52,136,19.84,144,30.92,144,38.24,144,42.8,140.84,45.12,133.64Z"/><path class="cls-1" d="M44.76,36.28V34.52c0-13.16-2.64-21.76-13.68-21.76s-14,9.8-14,22.2c0,15,3,20.4,17.12,31.2C38.4,69.36,42,72.24,45.12,75v26.8c-2.48-8-7.8-13.92-18.08-21.92C10.76,67.2,2.6,59.64,2.6,37.16,2.6,18,8.32-.16,31.4,0,52.8.12,59.2,14.08,59.2,34.16v2.12Z"/><path class="cls-2" d="M239.79,92.4v99.11H225.15V94.2c0-20.16-7-42.16-34.24-42.16-28.4,0-41.28,23.48-41.28,52.72v86.75H135.28v-97c0-22-6.44-42.48-33.36-42.48C76.44,52,62.76,72.88,60.2,99.4c-2.12-10-6.72-16.8-15.08-24.36V68.28c0-2.6,0-5.2,0-7.8s0-5.08,0-7.6S45,48,44.92,45.52s-.16-4.84-.16-7.28v-2H59.2v1.64c0,1.56,0,3.16.08,4.72.08,1.16.12,2.36.16,3.52.08,1.44.12,2.84.16,4.28s.12,3.08.16,4.64,0,3.24.08,4.84v4.64c0,.52,0,1.08,0,1.6v.76a1.36,1.36,0,0,0,0,.4,1.09,1.09,0,0,1,0,.36c6.16-15,19.6-30.4,43.92-30.4,20.48,0,36.6,10.52,42.44,29.8,7.31-15.64,21.95-29.8,47.71-29.8C216.35,37.28,239.79,50.52,239.79,92.4Z"/><path class="cls-2" d="M59.76,133.92v57.59H45.12V153.88C53.2,150.08,57.6,142.84,59.76,133.92Z"/></g></g></svg>