<svg xmlns="http://www.w3.org/2000/svg" viewBox="0 0 780.3 296.2"><defs><style>.cls-1{fill:#afafaf;}.cls-2{fill:#7568b9;}.cls-3{fill:#172c66;}</style></defs><g id="Layer_2" data-name="Layer 2"><g id="Layer_5" data-name="Layer 5"><path class="cls-1" d="M78.75,257.06q-9.85,0-14.58-3.88t-4.72-12.65V223.79q0-3.37.1-10.39c.06-4.68.1-7.49.1-8.43H83.81v-7.9H59.65v-16H49.86v16H44.52c-2.55,0-5.11,0-7.66-.06a127.58,127.58,0,0,0-14.37,0c-.72.07-1.23.16-1.84.25a26.37,26.37,0,0,0-8.82,2.87,20.09,20.09,0,0,0-7.34,6.41,15.48,15.48,0,0,0-2.74,9,16,16,0,0,0,2.4,8.78,20.8,20.8,0,0,0,6.92,6.54,71.29,71.29,0,0,0,7.86,3.95,48.2,48.2,0,0,1,7.39,3.88A16.93,16.93,0,0,1,30.23,242a6.81,6.81,0,0,1,1.42,4.49A8.4,8.4,0,0,1,30,251.66a12.12,12.12,0,0,1-5,3.65,20.85,20.85,0,0,1-6.14,1.48,58.56,58.56,0,0,1-6.08.41q-4.05,0-8.13-.31C2,256.69.4,256.57,0,256.52l.4,8.84c.32.05,1.66.17,4,.38s4.65.3,6.86.3a54.78,54.78,0,0,0,12.47-1.32,32.19,32.19,0,0,0,9.77-3.88,19.43,19.43,0,0,0,6.35-6.34,16.55,16.55,0,0,0,2.43-8.91A15,15,0,0,0,39.84,237a23.59,23.59,0,0,0-7.2-6.61,69.91,69.91,0,0,0-7-3.58q-4.8-2.22-7.57-3.84A16.49,16.49,0,0,1,14,219.61,6.76,6.76,0,0,1,12.21,215a7.88,7.88,0,0,1,1.26-4,9.92,9.92,0,0,1,4.15-3.57,17.54,17.54,0,0,1,4.78-1.55,30.14,30.14,0,0,1,5.83-.67c2.1,0,4.32-.08,6.44-.14,3-.07,6,0,9,0h5.56q0,12.69-.1,21.25t-.11,16.06q0,12,7.09,17.72t20.92,5.77c.9,0,2,0,3.2-.07s2-.09,2.33-.13L83.81,257l-2.16,0Z"/><path class="cls-1" d="M136.71,213.57a28.78,28.78,0,0,0-6.07-10.63,22.51,22.51,0,0,0-8.44-5.73,30.55,30.55,0,0,0-11.13-1.89,31.2,31.2,0,0,0-12.25,2.49,26.67,26.67,0,0,0-9.89,7.09,37.52,37.52,0,0,0-6.88,11.54,39.85,39.85,0,0,0-2.3,13.9,32.66,32.66,0,0,0,3.07,14.24,35.18,35.18,0,0,0,7.46,10.53,35.53,35.53,0,0,0,13.13,7.72,56.79,56.79,0,0,0,18.79,2.8c2.74,0,5.13-.05,7.15-.16s3.22-.2,3.58-.24l1.22-9c-.5.05-1.82.14-4,.27s-4.49.21-7,.21a50.31,50.31,0,0,1-12-1.25,29.58,29.58,0,0,1-8.9-3.75,24.66,24.66,0,0,1-9.11-9.88,29.68,29.68,0,0,1-3-13.13h48.79A50,50,0,0,0,136.71,213.57Zm-45.82,7.59a25.62,25.62,0,0,1,7-13,17.55,17.55,0,0,1,12.62-4.83q7.55,0,12.18,4.76t5.7,13.12Z"/><path class="cls-1" d="M190.24,196l-23,56.08h-.14l-23.71-56.21-9.9,4.48q9.85,21.94,19.37,43.08t9.85,21.94h7.9q.33-.74,10.22-23.19l18.73-42.5Z"/><path class="cls-1" d="M251.49,213.57a28.8,28.8,0,0,0-6.08-10.63,22.4,22.4,0,0,0-8.43-5.73,30.57,30.57,0,0,0-11.14-1.89,31.19,31.19,0,0,0-12.24,2.49,26.58,26.58,0,0,0-9.89,7.09,37.33,37.33,0,0,0-6.88,11.54,39.85,39.85,0,0,0-2.3,13.9,32.52,32.52,0,0,0,3.07,14.24,35,35,0,0,0,7.46,10.53,35.53,35.53,0,0,0,13.13,7.72,56.75,56.75,0,0,0,18.79,2.8c2.74,0,5.13-.05,7.15-.16s3.22-.2,3.58-.24l1.21-9c-.49.05-1.81.14-3.95.27s-4.48.21-7.05.21a50.22,50.22,0,0,1-12-1.25,29.75,29.75,0,0,1-8.91-3.75,24.73,24.73,0,0,1-9.11-9.88,29.68,29.68,0,0,1-3-13.13h48.79A50,50,0,0,0,251.49,213.57Zm-45.82,7.59a25.68,25.68,0,0,1,7-13,17.59,17.59,0,0,1,12.62-4.83q7.56,0,12.19,4.76t5.7,13.12Z"/><path class="cls-1" d="M312.48,240.33q0-3.86.11-10t.1-14.68q0-9.45-5.23-14.88t-13.87-5.43a34.17,34.17,0,0,0-10.5,2.12A94.53,94.53,0,0,0,267.34,205l-.07-.14.07-7.76H256.81q.21,10.73.24,20.25t0,16.6q0,15.38-.13,23.18c-.09,5.19-.14,7.95-.14,8.26h10.66c0-.36-.05-4.22-.17-11.6s-.16-13.68-.16-18.9q0-6,.06-13.29t.07-8a82.86,82.86,0,0,1,12.28-6.21,28.6,28.6,0,0,1,10.19-2.43q6.83,0,9.59,3.37t3,11.14q.07,3.17.1,10t0,10.36q0,2.49-.1,13.09c-.07,7.06-.13,11.23-.17,12.48h10.66c0-.31-.05-3.54-.17-9.68S312.48,244.42,312.48,240.33Z"/><path class="cls-1" d="M407.31,206.72a69.49,69.49,0,0,0-11.49,5.71c0,.24,0,.72.05,1.39v2.62c0,3.62,0,7.34-.05,11.1s-.09,7.29-.09,10.73c0,7.48.09,13.72.19,18.82s.14,7.82.14,8.29h-6.67c0-.47-.05-3.24-.14-8.29s-.19-11.34-.19-18.82c0-3.44,0-7,.09-10.73s.05-7.48.05-11.1v-2.62c-.05-.67-.05-1.15-.05-1.39a69.1,69.1,0,0,1,11.49-5.71,27.32,27.32,0,0,1,8.81-1.81,21.06,21.06,0,0,1,3.58.28A36.77,36.77,0,0,0,407.31,206.72Z"/><path class="cls-1" d="M352.74,222.06c-.05,5-.05,9-.05,12.15,0,5.34.05,11.78.19,19.26s.15,11.44.15,11.91h-6.67c0-.47-.05-4.43-.15-11.91s-.19-13.92-.19-19.26c0-3.14,0-7.19.05-12.15s.09-7.81.09-8.58a89.53,89.53,0,0,1,11.59-6.38,22.55,22.55,0,0,1,8.86-2.19,22.93,22.93,0,0,1,3.86.28,24.88,24.88,0,0,0-6.05,1.91,88.83,88.83,0,0,0-11.58,6.38C352.84,214.25,352.79,217.11,352.74,222.06Z"/><path class="cls-2" d="M428.66,255.9c0-5.77.09-11.25.09-16.4,0-2,0-5.33,0-10s0-8-.1-10.34c-.14-5.38-1.19-9.15-3.19-11.2s-5.1-3.09-9.29-3.09a18.2,18.2,0,0,0-3.1.28,21.06,21.06,0,0,0-3.58-.28,27.32,27.32,0,0,0-8.81,1.81,69.1,69.1,0,0,0-11.49,5.71c0,.24,0,.72.05,1.39v2.62c0,3.62,0,7.34-.05,11.1s-.09,7.29-.09,10.73c0,7.48.09,13.72.19,18.82s.14,7.82.14,8.29h-4c0-.52.05-3.24.15-8.2s.09-10.77.09-17.53v-10.2c-.05-4.58-.05-8-.09-10.1a36.42,36.42,0,0,0-.57-5.68,11,11,0,0,0-1.77-4.57,8.22,8.22,0,0,0-3.62-3.15,15.18,15.18,0,0,0-6.34-1,14.86,14.86,0,0,0-2.81.28,22.93,22.93,0,0,0-3.86-.28,22.55,22.55,0,0,0-8.86,2.19,89.53,89.53,0,0,0-11.59,6.38c0,.77,0,3.63-.09,8.58s-.05,9-.05,12.15c0,5.34.05,11.78.19,19.26s.15,11.44.15,11.91h-4q0-.57.14-7.86c.1-4.91.15-13,.15-24.26,0-3.72,0-8.67-.05-14.92s-.1-13.34-.24-21.25h3.86l0,7.72,0,.1a56.42,56.42,0,0,1,6.67-4.06l0,4,0,.1a74,74,0,0,1,11.39-6.44,34.78,34.78,0,0,1,9-2.91,17.74,17.74,0,0,1,7.48,2.53,16,16,0,0,1,6.29,7h.15c1.62-1,3.24-2,4.81-2.82a11.23,11.23,0,0,1,1.72,2.82h.14a85.91,85.91,0,0,1,14.25-7.3,38.41,38.41,0,0,1,8.05-2.24,17.69,17.69,0,0,1,10.92,5.2c3.52,3.62,5.24,8.48,5.24,14.68,0,4.76-.05,8.77-.1,12.05s-.09,6.68-.09,10.35c0,7.53.05,14,.14,19.15s.19,8,.19,8.39h-4C428.52,264.86,428.56,261.71,428.66,255.9Z"/><path class="cls-3" d="M291.84,133.64v20.24a33.26,33.26,0,0,1-14.36,2.84c-23.76,0-30.76-15.68-30.76-35.8V112.2h14.52v8.72c0,15.08,5.32,23.12,16.4,23.12C285,144,289.52,140.84,291.84,133.64Z"/><path class="cls-3" d="M291.48,36.28V34.52c0-13.16-2.64-21.76-13.68-21.76s-14,9.8-14,22.2c0,15,3,20.4,17.12,31.2,4.2,3.2,7.84,6.08,10.92,8.88v26.8c-2.48-8-7.8-13.92-18.08-21.92-16.28-12.72-24.44-20.28-24.44-42.76C249.32,18,255-.16,278.12,0c21.4.12,27.8,14.08,27.8,34.16v2.12Z"/><path class="cls-1" d="M486.51,92.4v99.11H471.87V94.2c0-20.16-7-42.16-34.24-42.16-28.39,0-41.27,23.48-41.27,52.72v86.75H382v-97c0-22-6.44-42.48-33.36-42.48-25.48,0-39.16,20.84-41.72,47.36-2.12-10-6.72-16.8-15.08-24.36V68.28c0-2.6,0-5.2,0-7.8s0-5.08,0-7.6-.08-4.92-.12-7.36-.16-4.84-.16-7.28v-2h14.44v1.64c0,1.56,0,3.16.08,4.72.08,1.16.12,2.36.16,3.52.08,1.44.12,2.84.16,4.28s.12,3.08.16,4.64,0,3.24.08,4.84v4.64c0,.52,0,1.08,0,1.6v.76a1.36,1.36,0,0,0,0,.4,1.09,1.09,0,0,1,0,.36c6.16-15,19.6-30.4,43.92-30.4,20.48,0,36.6,10.52,42.44,29.8,7.32-15.64,22-29.8,47.71-29.8C463.07,37.28,486.51,50.52,486.51,92.4Z"/><path class="cls-1" d="M306.48,133.92v57.59H291.84V153.88C299.92,150.08,304.32,142.84,306.48,133.92Z"/><path class="cls-3" d="M489.54,256.59a75.24,75.24,0,0,1-12.55-1,39.63,39.63,0,0,1-10.66-3.31,24.24,24.24,0,0,1-9.75-8.26,22.93,22.93,0,0,1-3.68-13.26,21.82,21.82,0,0,1,3.92-12.42,22.63,22.63,0,0,1,10.59-8.5,47.2,47.2,0,0,1,10.29-3,77.66,77.66,0,0,1,12.79-.91h2.09l-.54-9h-2.77a73.55,73.55,0,0,0-17.51,2.06,47.25,47.25,0,0,0-14.54,6A34.59,34.59,0,0,0,446.29,216a27.79,27.79,0,0,0-4.19,14.88,30.34,30.34,0,0,0,4.59,16.4,33.71,33.71,0,0,0,12.76,11.81A51.51,51.51,0,0,0,473,264a76.18,76.18,0,0,0,16.26,1.65H493l.81-9h-4.26Z"/><path class="cls-3" d="M552.57,240.33q0-3.86.1-10t.1-14.68q0-9.45-5.23-14.88t-13.87-5.43a33.48,33.48,0,0,0-10.53,2.09,101.29,101.29,0,0,0-15.79,7.49l-.06-.07.27-38.4H496.89q.21,15.47.24,27.37t0,19.74q0,12-.1,30.6t-.17,21.22h10.67l-.27-51.89A85.62,85.62,0,0,1,520,207.21a28.93,28.93,0,0,1,9.86-2.31q6.81,0,9.58,3.37t3,11.14c0,2.11.08,5.45.1,10s0,8,0,10.36q0,3.24-.1,13.39t-.17,12.18H552.9q-.06-3-.2-10.93T552.57,240.33Z"/><path class="cls-3" d="M613,213.57A28.8,28.8,0,0,0,607,202.94a22.4,22.4,0,0,0-8.43-5.73,30.57,30.57,0,0,0-11.14-1.89,31.19,31.19,0,0,0-12.24,2.49,26.58,26.58,0,0,0-9.89,7.09,37.33,37.33,0,0,0-6.88,11.54,39.85,39.85,0,0,0-2.3,13.9,32.66,32.66,0,0,0,3.07,14.24,35,35,0,0,0,7.46,10.53,35.53,35.53,0,0,0,13.13,7.72,56.75,56.75,0,0,0,18.79,2.8c2.74,0,5.13-.05,7.15-.16s3.22-.2,3.58-.24l1.21-9c-.49.05-1.81.14-4,.27s-4.48.21-7,.21a50.22,50.22,0,0,1-12-1.25,29.75,29.75,0,0,1-8.91-3.75,24.73,24.73,0,0,1-9.11-9.88,29.68,29.68,0,0,1-3-13.13h48.79A50,50,0,0,0,613,213.57Zm-45.82,7.59a25.68,25.68,0,0,1,7-13,17.59,17.59,0,0,1,12.62-4.83q7.56,0,12.19,4.76t5.7,13.12Z"/><path class="cls-3" d="M674,240.33q0-3.86.1-10t.1-14.68q0-9.45-5.23-14.88t-13.87-5.43a34.06,34.06,0,0,0-10.49,2.12A94.2,94.2,0,0,0,628.88,205l-.07-.14.07-7.76H618.35q.21,10.73.24,20.25t0,16.6q0,15.38-.13,23.18c-.09,5.19-.14,7.95-.14,8.26H629c0-.36,0-4.22-.17-11.6s-.16-13.68-.16-18.9q0-6,.06-13.29t.07-8a82.86,82.86,0,0,1,12.28-6.21,28.6,28.6,0,0,1,10.19-2.43q6.83,0,9.59,3.37t3,11.14q.06,3.17.1,10t0,10.36q0,2.49-.1,13.09c-.07,7.06-.13,11.23-.17,12.48h10.66c0-.31-.05-3.54-.17-9.68S674,244.42,674,240.33Z"/><path class="cls-3" d="M771,196.13q-8.64,20.85-15.93,38.12c-4.85,11.52-7.42,17.51-7.82,17.95q-.4-.94-8.1-19.26-2.25-5.35-4.46-10.71-2.72-6.57-5.38-13.17-1.33-3.3-2.66-6.62l-1.32-3.32c-.23-.56-.45-1.11-.67-1.67-.13-.32-.23-.66-.36-1a2.16,2.16,0,0,0-.22-.49c-.1-.16-.2-.17-.41-.22s-.4,0-.64-.09a6.78,6.78,0,0,0-.77,0,5.49,5.49,0,0,0-1.84.25,93.86,93.86,0,0,0-10.86,4c-5,2.11-10,4.61-15.11,7.42V197.07H684q.13,10,.2,21.26t.07,17.54q0,15.52-.14,21.94t-.13,7.55h10.66q0-1.22-.17-12.14t-.17-18.9c0-3.46,0-7.21.07-11.23s.07-6.29.07-6.79q10-4.71,17.64-7.55c1.81-.67,3.39-1.23,4.87-1.74,6.28,14.1,11.74,26.54,16.3,37.1q7.92,18.34,8.46,19.7l-14,28.95,9.33,3.44q.95-2.08,15.49-34.72t27.7-61.64Z"/><path class="cls-3" d="M432.47,265.38H421.8c0-.52.09-3.67.19-9.48s.09-11.25.09-16.4c0-2,0-5.33-.05-10s0-8-.09-10.34c-.14-5.38-1.19-9.15-3.19-11.2a10.53,10.53,0,0,0-5.72-2.81,21.06,21.06,0,0,0-3.58-.28,27.32,27.32,0,0,0-8.81,1.81,69.1,69.1,0,0,0-11.49,5.71c0,.24,0,.72.05,1.39v2.62c0,3.62,0,7.34-.05,11.1s-.09,7.29-.09,10.73c0,7.48.09,13.72.19,18.82s.14,7.82.14,8.29H378.76c0-.52.05-3.24.15-8.2s.09-10.77.09-17.53v-10.2c-.05-4.58-.05-8-.09-10.1a35.23,35.23,0,0,0-.58-5.68,10.83,10.83,0,0,0-1.76-4.57A8.28,8.28,0,0,0,373,206a10.38,10.38,0,0,0-2.48-.76,22.93,22.93,0,0,0-3.86-.28,22.55,22.55,0,0,0-8.86,2.19,89.53,89.53,0,0,0-11.59,6.38c0,.77,0,3.63-.09,8.58s-.05,9-.05,12.15c0,5.34.05,11.78.19,19.26s.15,11.44.15,11.91H335.68q0-.57.14-7.86c.1-4.91.15-13,.15-24.26,0-3.72,0-8.67-.05-14.92s-.1-13.34-.24-21.25h10.53l0,7.72,0,.1a56.42,56.42,0,0,1,6.67-4.06c1.48-.81,3.05-1.62,4.72-2.38,4.58-2.1,8.58-3.14,12.11-3.14a29.21,29.21,0,0,1,3.57.23,17.74,17.74,0,0,1,7.48,2.53,16,16,0,0,1,6.29,7h.15c1.62-1,3.24-2,4.81-2.82a77.45,77.45,0,0,1,9.44-4.48,32,32,0,0,1,11.1-2.47,30,30,0,0,1,3.62.23,17.69,17.69,0,0,1,10.92,5.2c3.52,3.62,5.24,8.48,5.24,14.68,0,4.76-.05,8.77-.1,12.05s-.09,6.68-.09,10.35c0,7.53.05,14,.14,19.15S432.47,265,432.47,265.38Z"/></g></g></svg>