<svg xmlns="http://www.w3.org/2000/svg" viewBox="0 0 354.75 354.75"><defs><style>.cls-1{fill:#fff;}.cls-2{fill:none;}.cls-3{fill:#afafaf;}.cls-4{fill:#172c66;}</style></defs><g id="Layer_2" data-name="Layer 2"><g id="Layer_11" data-name="Layer 11"><circle class="cls-1" cx="177.38" cy="177.38" r="177.38"/><path class="cls-2" d="M119.12,197.62a75.57,75.57,0,0,1-1.88,17.92c-2.16,8.91-6.56,16.15-14.64,20V215.26c1.32-4,1.92-9.16,1.92-15.68s-.52-11.64-1.92-16.12v-26.8c8.36,7.56,13,14.4,15.08,24.36A79.83,79.83,0,0,1,119.12,197.62Z"/><path class="cls-3" d="M102.6,215.26v20.23a33.26,33.26,0,0,1-14.36,2.84c-23.76,0-30.76-15.67-30.76-35.79v-8.72H72v8.72c0,15.08,5.32,23.11,16.4,23.11C95.72,225.65,100.28,222.45,102.6,215.26Z"/><path class="cls-3" d="M102.24,117.9v-1.76c0-13.16-2.64-21.76-13.68-21.76s-14,9.8-14,22.2c0,15,3,20.4,17.12,31.2,4.2,3.2,7.84,6.08,10.92,8.88v26.8c-2.48-8-7.8-13.92-18.08-21.92-16.28-12.72-24.44-20.28-24.44-42.76,0-19.2,5.72-37.32,28.8-37.16,21.4.12,27.8,14.08,27.8,34.16v2.12Z"/><path class="cls-4" d="M297.27,174v99.11H282.63V175.82c0-20.16-7-42.16-34.24-42.16-28.4,0-41.27,23.48-41.27,52.72v86.75H192.76v-97c0-22-6.44-42.48-33.36-42.48-25.48,0-39.16,20.84-41.72,47.36-2.12-10-6.72-16.8-15.08-24.36V149.9c0-2.6,0-5.2,0-7.8s0-5.08,0-7.6-.08-4.92-.12-7.36-.16-4.84-.16-7.28v-2h14.44v1.64c0,1.56,0,3.16.08,4.72.08,1.16.12,2.36.16,3.52.08,1.44.12,2.84.16,4.28s.12,3.08.16,4.64,0,3.24.08,4.84v4.64c0,.52,0,1.08,0,1.6v.76a1.36,1.36,0,0,0,0,.4,1.09,1.09,0,0,1,0,.36c6.16-15,19.6-30.4,43.92-30.4,20.48,0,36.6,10.52,42.44,29.8,7.31-15.64,22-29.8,47.71-29.8C273.83,118.9,297.27,132.14,297.27,174Z"/><path class="cls-4" d="M117.24,215.54v57.59H102.6V235.49C110.68,231.69,115.08,224.45,117.24,215.54Z"/></g></g></svg>