<svg xmlns="http://www.w3.org/2000/svg" viewBox="0 0 780.3 129.77"><defs><style>.cls-1{fill:#afafaf;}.cls-2{fill:#7568b9;}.cls-3{fill:#172c66;}</style></defs><g id="Layer_2" data-name="Layer 2"><g id="Layer_5" data-name="Layer 5"><path class="cls-1" d="M78.75,90.63q-9.85,0-14.58-3.88T59.45,74.1V57.36q0-3.37.1-10.39c.06-4.68.1-7.49.1-8.44H83.81V30.64H59.65v-16H49.86v16H44.52c-2.55,0-5.11,0-7.66-.06a127.58,127.58,0,0,0-14.37,0c-.72.06-1.23.16-1.84.24a26.6,26.6,0,0,0-8.82,2.87,20.11,20.11,0,0,0-7.34,6.42,15.48,15.48,0,0,0-2.74,9,16,16,0,0,0,2.4,8.77,20.92,20.92,0,0,0,6.92,6.55,71.29,71.29,0,0,0,7.86,4,47.33,47.33,0,0,1,7.39,3.88,16.93,16.93,0,0,1,3.91,3.34A6.79,6.79,0,0,1,31.65,80,8.4,8.4,0,0,1,30,85.23a12.21,12.21,0,0,1-5,3.65,21.17,21.17,0,0,1-6.14,1.48,58.56,58.56,0,0,1-6.08.41c-2.7,0-5.41-.11-8.13-.31S.4,90.13,0,90.09l.4,8.84c.32,0,1.66.17,4,.37s4.65.31,6.86.31a54.78,54.78,0,0,0,12.47-1.32,32.45,32.45,0,0,0,9.77-3.88,19.53,19.53,0,0,0,6.35-6.34,16.55,16.55,0,0,0,2.43-8.91,15,15,0,0,0-2.47-8.64,23.59,23.59,0,0,0-7.2-6.61,67.8,67.8,0,0,0-7-3.58c-3.2-1.48-5.72-2.77-7.57-3.85A16.67,16.67,0,0,1,14,53.18a6.76,6.76,0,0,1-1.76-4.66,7.88,7.88,0,0,1,1.26-4.05,9.94,9.94,0,0,1,4.15-3.58,17.89,17.89,0,0,1,4.78-1.55,30.15,30.15,0,0,1,5.83-.66c2.1,0,4.32-.09,6.44-.14,3-.07,6,0,9,0h5.56q0,12.69-.1,21.26t-.11,16.06q0,11.94,7.09,17.71t20.92,5.78c.9,0,2,0,3.2-.07s2-.09,2.33-.14l1.22-8.57-2.16,0Z"/><path class="cls-1" d="M136.71,47.14a28.78,28.78,0,0,0-6.07-10.63,22.54,22.54,0,0,0-8.44-5.74,30.55,30.55,0,0,0-11.13-1.89,31.21,31.21,0,0,0-12.25,2.5,26.55,26.55,0,0,0-9.89,7.09A37.52,37.52,0,0,0,82.05,50a39.81,39.81,0,0,0-2.3,13.9,32.66,32.66,0,0,0,3.07,14.24,35,35,0,0,0,7.46,10.52,35.55,35.55,0,0,0,13.13,7.73,56.79,56.79,0,0,0,18.79,2.8c2.74,0,5.13-.06,7.15-.17s3.22-.19,3.58-.23l1.22-9c-.5,0-1.82.14-4,.27s-4.49.2-7,.2a50.36,50.36,0,0,1-12-1.24,30.09,30.09,0,0,1-8.9-3.75,24.68,24.68,0,0,1-9.11-9.89,29.61,29.61,0,0,1-3-13.12h48.79A49.86,49.86,0,0,0,136.71,47.14ZM90.89,54.73a25.69,25.69,0,0,1,7-13.06,17.55,17.55,0,0,1,12.62-4.82q7.55,0,12.18,4.75t5.7,13.13Z"/><path class="cls-1" d="M190.24,29.56l-23,56.08h-.14L143.36,29.42l-9.9,4.49Q143.32,55.86,152.83,77t9.85,21.94h7.9L180.8,75.74q9.88-22.45,18.73-42.51Z"/><path class="cls-1" d="M251.49,47.14a28.8,28.8,0,0,0-6.08-10.63A22.42,22.42,0,0,0,237,30.77a30.57,30.57,0,0,0-11.14-1.89,31.2,31.2,0,0,0-12.24,2.5,26.47,26.47,0,0,0-9.89,7.09A37.33,37.33,0,0,0,196.83,50a39.81,39.81,0,0,0-2.3,13.9,32.52,32.52,0,0,0,3.07,14.24,34.83,34.83,0,0,0,7.46,10.52,35.55,35.55,0,0,0,13.13,7.73A56.75,56.75,0,0,0,237,99.2c2.74,0,5.13-.06,7.15-.17s3.22-.19,3.58-.23l1.21-9c-.49,0-1.81.14-3.95.27s-4.48.2-7.05.2a50.27,50.27,0,0,1-12-1.24A30.27,30.27,0,0,1,217,85.3a24.75,24.75,0,0,1-9.11-9.89,29.6,29.6,0,0,1-3-13.12h48.79A49.86,49.86,0,0,0,251.49,47.14Zm-45.82,7.59a25.75,25.75,0,0,1,7-13.06,17.58,17.58,0,0,1,12.62-4.82q7.56,0,12.19,4.75t5.7,13.13Z"/><path class="cls-1" d="M312.48,73.89q0-3.84.11-10c.06-4.11.1-9,.1-14.67q0-9.45-5.23-14.89t-13.87-5.43A34.23,34.23,0,0,0,283.09,31a93.56,93.56,0,0,0-15.75,7.52l-.07-.13.07-7.76H256.81q.21,10.72.24,20.24t0,16.6q0,15.39-.13,23.18t-.14,8.27h10.66c0-.36-.05-4.23-.17-11.61s-.16-13.67-.16-18.89q0-6,.06-13.3t.07-8a82.86,82.86,0,0,1,12.28-6.21,28.77,28.77,0,0,1,10.19-2.42q6.83,0,9.59,3.37t3,11.13q.07,3.18.1,10c0,4.56,0,8,0,10.35q0,2.5-.1,13.1t-.17,12.48h10.66c0-.31-.05-3.54-.17-9.68S312.48,78,312.48,73.89Z"/><path class="cls-1" d="M407.31,40.28A69.62,69.62,0,0,0,395.82,46c0,.24,0,.72.05,1.38V50c0,3.63,0,7.34-.05,11.11s-.09,7.29-.09,10.72c0,7.48.09,13.73.19,18.83s.14,7.81.14,8.29h-6.67q0-.72-.14-8.29c-.1-5.1-.19-11.35-.19-18.83,0-3.43,0-7,.09-10.72s.05-7.48.05-11.11V47.38c-.05-.66-.05-1.14-.05-1.38a69.24,69.24,0,0,1,11.49-5.72,27.59,27.59,0,0,1,8.81-1.81,21,21,0,0,1,3.58.29A36.65,36.65,0,0,0,407.31,40.28Z"/><path class="cls-1" d="M352.74,55.63c-.05,4.95-.05,9-.05,12.15,0,5.34.05,11.77.19,19.25S353,98.47,353,99h-6.67c0-.48-.05-4.43-.15-11.92S346,73.12,346,67.78c0-3.14,0-7.2.05-12.15s.09-7.82.09-8.58a91,91,0,0,1,11.59-6.39,20.61,20.61,0,0,1,12.72-1.9,24.82,24.82,0,0,0-6.05,1.9,90.25,90.25,0,0,0-11.58,6.39C352.84,47.81,352.79,50.67,352.74,55.63Z"/><path class="cls-2" d="M428.66,89.46c0-5.76.09-11.24.09-16.39,0-2,0-5.34,0-10s0-8-.1-10.34c-.14-5.39-1.19-9.15-3.19-11.2s-5.1-3.1-9.29-3.1a18.26,18.26,0,0,0-3.1.29,21,21,0,0,0-3.58-.29,27.59,27.59,0,0,0-8.81,1.81A69.24,69.24,0,0,0,389.15,46c0,.24,0,.72.05,1.38V50c0,3.63,0,7.34-.05,11.11s-.09,7.29-.09,10.72c0,7.48.09,13.73.19,18.83s.14,7.81.14,8.29h-4c0-.53.05-3.24.15-8.2s.09-10.77.09-17.54V63c-.05-4.57-.05-7.95-.09-10.1a36.41,36.41,0,0,0-.57-5.67,10.92,10.92,0,0,0-1.77-4.57,8.22,8.22,0,0,0-3.62-3.15,15.16,15.16,0,0,0-6.34-1.05,14.9,14.9,0,0,0-2.81.29,20.61,20.61,0,0,0-12.72,1.9,91,91,0,0,0-11.59,6.39c0,.76,0,3.62-.09,8.58s-.05,9-.05,12.15c0,5.34.05,11.77.19,19.25s.15,11.44.15,11.92h-4q0-.57.14-7.86c.1-4.91.15-13,.15-24.26,0-3.72,0-8.68-.05-14.92s-.1-13.34-.24-21.25h3.86l0,7.72,0,.09a57.79,57.79,0,0,1,6.67-4l0,4,0,.09A74.05,74.05,0,0,1,364.27,32a34.4,34.4,0,0,1,9-2.91,17.47,17.47,0,0,1,7.48,2.53,16,16,0,0,1,6.29,7h.15c1.62-1,3.24-1.95,4.81-2.81a11.35,11.35,0,0,1,1.72,2.81h.14a86.57,86.57,0,0,1,14.25-7.29,37.81,37.81,0,0,1,8.05-2.24,17.64,17.64,0,0,1,10.92,5.2c3.52,3.62,5.24,8.48,5.24,14.67,0,4.77-.05,8.77-.1,12.06s-.09,6.67-.09,10.34c0,7.53.05,14,.14,19.16s.19,8,.19,8.39h-4C428.52,98.42,428.56,95.28,428.66,89.46Z"/><path class="cls-3" d="M489.54,90.16a75.24,75.24,0,0,1-12.55-1,39.63,39.63,0,0,1-10.66-3.31,24.19,24.19,0,0,1-9.75-8.27,22.91,22.91,0,0,1-3.68-13.26,21.82,21.82,0,0,1,3.92-12.42,22.69,22.69,0,0,1,10.59-8.5,47.73,47.73,0,0,1,10.29-3,76.57,76.57,0,0,1,12.79-.91h2.09l-.54-9h-2.77a74.07,74.07,0,0,0-17.51,2.06,47.26,47.26,0,0,0-14.54,6,34.49,34.49,0,0,0-10.93,11.1,27.79,27.79,0,0,0-4.19,14.88,30.31,30.31,0,0,0,4.59,16.39,33.55,33.55,0,0,0,12.76,11.81A51.52,51.52,0,0,0,473,97.55a76.18,76.18,0,0,0,16.26,1.65H493l.81-9h-4.26Z"/><path class="cls-3" d="M552.57,73.89q0-3.84.1-10c.06-4.11.1-9,.1-14.67q0-9.45-5.23-14.89t-13.87-5.43A33.77,33.77,0,0,0,523.14,31a102.44,102.44,0,0,0-15.79,7.5l-.06-.07L507.56,0H496.89q.21,15.45.24,27.37t0,19.73q0,12-.1,30.61t-.17,21.22h10.67L507.29,47A83.69,83.69,0,0,1,520,40.78a28.93,28.93,0,0,1,9.86-2.31q6.81,0,9.58,3.37t3,11.13c0,2.12.08,5.46.1,10s0,8,0,10.35q0,3.24-.1,13.4t-.17,12.18H552.9q-.06-3-.2-10.93T552.57,73.89Z"/><path class="cls-3" d="M613,47.14A28.8,28.8,0,0,0,607,36.51a22.42,22.42,0,0,0-8.43-5.74,30.57,30.57,0,0,0-11.14-1.89,31.2,31.2,0,0,0-12.24,2.5,26.47,26.47,0,0,0-9.89,7.09A37.33,37.33,0,0,0,558.37,50a39.81,39.81,0,0,0-2.3,13.9,32.66,32.66,0,0,0,3.07,14.24,34.83,34.83,0,0,0,7.46,10.52,35.55,35.55,0,0,0,13.13,7.73,56.75,56.75,0,0,0,18.79,2.8c2.74,0,5.13-.06,7.15-.17s3.22-.19,3.58-.23l1.21-9c-.49,0-1.81.14-4,.27s-4.48.2-7,.2a50.27,50.27,0,0,1-12-1.24,30.27,30.27,0,0,1-8.91-3.75,24.75,24.75,0,0,1-9.11-9.89,29.6,29.6,0,0,1-3-13.12h48.79A49.86,49.86,0,0,0,613,47.14Zm-45.82,7.59a25.75,25.75,0,0,1,7-13.06,17.58,17.58,0,0,1,12.62-4.82q7.56,0,12.19,4.75t5.7,13.13Z"/><path class="cls-3" d="M674,73.89q0-3.84.1-10c.06-4.11.1-9,.1-14.67q0-9.45-5.23-14.89t-13.87-5.43A34.12,34.12,0,0,0,644.64,31a93.24,93.24,0,0,0-15.76,7.52l-.07-.13.07-7.76H618.35q.21,10.72.24,20.24t0,16.6q0,15.39-.13,23.18t-.14,8.27H629c0-.36,0-4.23-.17-11.61s-.16-13.67-.16-18.89q0-6,.06-13.3t.07-8a82.86,82.86,0,0,1,12.28-6.21,28.77,28.77,0,0,1,10.19-2.42q6.83,0,9.59,3.37t3,11.13q.06,3.18.1,10c0,4.56,0,8,0,10.35q0,2.5-.1,13.1t-.17,12.48h10.66c0-.31-.05-3.54-.17-9.68S674,78,674,73.89Z"/><path class="cls-3" d="M771,29.69q-8.64,20.85-15.93,38.13c-4.85,11.52-7.42,17.5-7.82,18q-.4-.94-8.1-19.26-2.25-5.36-4.46-10.72-2.72-6.57-5.38-13.16c-.89-2.21-1.78-4.41-2.66-6.62l-1.32-3.32c-.23-.56-.45-1.11-.67-1.67-.13-.33-.23-.67-.36-1a2.38,2.38,0,0,0-.22-.49c-.1-.15-.2-.17-.41-.21a6.1,6.1,0,0,0-.64-.09,6.83,6.83,0,0,0-.77-.06,5.77,5.77,0,0,0-1.84.26,93.81,93.81,0,0,0-10.86,4c-5,2.12-10,4.61-15.11,7.42V30.64H684q.13,10,.2,21.25t.07,17.55q0,15.53-.14,21.93c-.09,4.28-.13,6.79-.13,7.56h10.66q0-1.22-.17-12.15t-.17-18.89c0-3.47,0-7.21.07-11.24s.07-6.28.07-6.78q10-4.73,17.64-7.56c1.81-.67,3.39-1.22,4.87-1.73,6.28,14.1,11.74,26.54,16.3,37.09Q741.2,96,741.74,97.38l-14,29,9.33,3.44q.95-2.09,15.49-34.72T780.3,33.4Z"/><path class="cls-3" d="M432.47,99H421.8c0-.53.09-3.67.19-9.49s.09-11.24.09-16.39c0-2,0-5.34-.05-10s0-8-.09-10.34c-.14-5.39-1.19-9.15-3.19-11.2A10.47,10.47,0,0,0,413,38.76a21,21,0,0,0-3.58-.29,27.59,27.59,0,0,0-8.81,1.81A69.24,69.24,0,0,0,389.15,46c0,.24,0,.72.05,1.38V50c0,3.63,0,7.34-.05,11.11s-.09,7.29-.09,10.72c0,7.48.09,13.73.19,18.83s.14,7.81.14,8.29H378.76c0-.53.05-3.24.15-8.2S379,80,379,73.21V63c-.05-4.57-.05-7.95-.09-10.1a35.22,35.22,0,0,0-.58-5.67,10.78,10.78,0,0,0-1.76-4.57A8.28,8.28,0,0,0,373,39.52a10.38,10.38,0,0,0-2.48-.76,20.61,20.61,0,0,0-12.72,1.9,91,91,0,0,0-11.59,6.39c0,.76,0,3.62-.09,8.58s-.05,9-.05,12.15c0,5.34.05,11.77.19,19.25s.15,11.44.15,11.92H335.68q0-.57.14-7.86c.1-4.91.15-13,.15-24.26,0-3.72,0-8.68-.05-14.92s-.1-13.34-.24-21.25h10.53l0,7.72,0,.09a57.79,57.79,0,0,1,6.67-4c1.48-.81,3.05-1.62,4.72-2.38,4.58-2.1,8.58-3.15,12.11-3.15a29.17,29.17,0,0,1,3.57.24,17.47,17.47,0,0,1,7.48,2.53,16,16,0,0,1,6.29,7h.15c1.62-1,3.24-1.95,4.81-2.81a74.58,74.58,0,0,1,9.44-4.48,31.82,31.82,0,0,1,11.1-2.48,30,30,0,0,1,3.62.24,17.64,17.64,0,0,1,10.92,5.2c3.52,3.62,5.24,8.48,5.24,14.67,0,4.77-.05,8.77-.1,12.06s-.09,6.67-.09,10.34c0,7.53.05,14,.14,19.16S432.47,98.57,432.47,99Z"/></g></g></svg>